<svg xmlns="http://www.w3.org/2000/svg" width="243" height="605" fill="none" viewBox="0 0 243 605"><path fill="#4e3323" fill-rule="evenodd" d="M11.96 505.96c5.8-27.03 6.55-56.22 9-83.74 4.43-49.73 8.58-99.06 7.3-149.08-1.44-56.74-7.66-113.3 2.4-169.64C39.08 56.3 74.5-10.87 132.85 1.5c12.75 2.18 23.78 10.13 33.96 17.65 30.11 22.22 48.78 57.58 59.04 92.98 5.08 17.52 9.95 34.92 12.68 53.02 13.78 91.35-7.03 182.44-43.5 265.89-13.3 30.4-32.73 62.22-55.96 86.14-6.16 6.33-16.75 19.86-25.5 22.13-.93-4.7.6-10.3 1.02-15.09.96-11.24 2.64-22.44 3.8-33.65.53-5.08 2.55-11.7 1.12-16.62-1.5.04-4.23 7.87-4.96 9.5-5.16 11.5-9.99 22.72-16.8 33.4-17.15 26.92-36.92 51.8-63.11 70.46-9.4 6.7-20.54 16.58-32.7 16.7-3.8-9.83-1.1-24.17.34-34.36 3-21.26 6.23-42.52 9.68-63.69" clip-rule="evenodd"/></svg>